<?xml version="1.0" encoding="UTF-8"?>
<svg version="1.1" xmlns="http://www.w3.org/2000/svg" width="256" height="160">
<path d="M0 0 C0.91567245 -0.00241196 1.83134491 -0.00482391 2.77476501 -0.00730896 C4.70543765 -0.00633174 6.63613873 0.00703209 8.56665039 0.03198242 C11.52131222 0.06633612 14.47298961 0.05262444 17.42773438 0.03320312 C19.30600231 0.04010061 21.18426253 0.04977211 23.0625 0.0625 C24.38605247 0.0550602 24.38605247 0.0550602 25.73634338 0.04747009 C31.85157338 0.16493635 31.85157338 0.16493635 34.98999023 2.53930664 C37.12421663 5.56311789 37.66256454 7.60611416 38.02734375 11.25390625 C38.11113281 12.07117187 38.19492188 12.8884375 38.28125 13.73046875 C38.34183594 14.35695313 38.40242188 14.9834375 38.46484375 15.62890625 C39.26921875 15.77328125 40.07359375 15.91765625 40.90234375 16.06640625 C43.46484375 16.62890625 43.46484375 16.62890625 44.46484375 17.62890625 C44.59765625 19.44140625 44.59765625 19.44140625 44.58984375 21.62890625 C44.59371094 22.71171875 44.59371094 22.71171875 44.59765625 23.81640625 C44.46484375 25.62890625 44.46484375 25.62890625 43.46484375 26.62890625 C41.7986726 26.66954457 40.1309628 26.67162725 38.46484375 26.62890625 C38.4805542 27.30469727 38.49626465 27.98048828 38.51245117 28.67675781 C38.57488242 31.74405522 38.61386022 34.81121884 38.65234375 37.87890625 C38.67748047 38.94238281 38.70261719 40.00585938 38.72851562 41.1015625 C38.73818359 42.12636719 38.74785156 43.15117188 38.7578125 44.20703125 C38.77352295 45.1496582 38.7892334 46.09228516 38.80541992 47.06347656 C38.40136685 50.10705342 37.61156615 51.45737895 35.46484375 53.62890625 C32.46484375 54.06640625 32.46484375 54.06640625 29.46484375 53.62890625 C28.85515747 52.88193481 28.85515747 52.88193481 28.2331543 52.11987305 C25.50435821 49.8190643 22.57287308 50.25900203 19.171875 50.3359375 C18.46584641 50.34018234 17.75981781 50.34442719 17.03239441 50.34880066 C14.78032072 50.36557591 12.52914633 50.40322382 10.27734375 50.44140625 C8.7493619 50.45645468 7.22136599 50.47014281 5.69335938 50.48242188 C1.95017503 50.51547536 -1.79233821 50.56724793 -5.53515625 50.62890625 C-5.53515625 51.28890625 -5.53515625 51.94890625 -5.53515625 52.62890625 C-8.84765625 53.31640625 -8.84765625 53.31640625 -12.53515625 53.62890625 C-14.24731445 52.49487305 -14.24731445 52.49487305 -15.53515625 50.62890625 C-15.87573242 48.08520508 -15.87573242 48.08520508 -15.828125 45.0859375 C-15.81845703 44.01279297 -15.80878906 42.93964844 -15.79882812 41.83398438 C-15.77369141 40.71443359 -15.74855469 39.59488281 -15.72265625 38.44140625 C-15.70912109 37.31025391 -15.69558594 36.17910156 -15.68164062 35.01367188 C-15.64625583 32.21827308 -15.59688573 29.42382733 -15.53515625 26.62890625 C-16.33953125 26.64953125 -17.14390625 26.67015625 -17.97265625 26.69140625 C-20.53515625 26.62890625 -20.53515625 26.62890625 -21.53515625 25.62890625 C-21.60695589 24.10962587 -21.61907632 22.58723143 -21.59765625 21.06640625 C-21.58863281 20.24011719 -21.57960938 19.41382812 -21.5703125 18.5625 C-21.55871094 17.92441406 -21.54710938 17.28632812 -21.53515625 16.62890625 C-19.55515625 16.29890625 -17.57515625 15.96890625 -15.53515625 15.62890625 C-15.52097656 14.96503906 -15.50679688 14.30117187 -15.4921875 13.6171875 C-15.44449219 12.73417969 -15.39679688 11.85117187 -15.34765625 10.94140625 C-15.29544922 9.63623047 -15.29544922 9.63623047 -15.2421875 8.3046875 C-13.10887763 0.23111147 -7.10378118 -0.10698478 0 0 Z " fill="#555655" transform="translate(114.53515625,51.37109375)"/>
<path d="M0 0 C0.556875 0.268125 1.11375 0.53625 1.6875 0.8125 C1.03628174 1.34029053 0.38506348 1.86808105 -0.28588867 2.41186523 C-2.91394909 5.52495017 -2.79017166 7.19097179 -2.73828125 11.22265625 C-2.72990234 12.45951172 -2.72152344 13.69636719 -2.71289062 14.97070312 C-2.68388672 16.25912109 -2.65488281 17.54753906 -2.625 18.875 C-2.61049805 20.81342773 -2.61049805 20.81342773 -2.59570312 22.79101562 C-2.64698548 29.40736706 -2.64698548 29.40736706 -1.3125 35.8125 C4.04429728 35.91132689 9.40056485 35.98394782 14.75805664 36.03222656 C16.5807418 36.05235059 18.40336234 36.07965296 20.22583008 36.11425781 C22.84472588 36.16274268 25.46276879 36.18546009 28.08203125 36.203125 C28.89775101 36.22377014 29.71347076 36.24441528 30.5539093 36.26568604 C34.97519334 36.29439921 34.97519334 36.29439921 38.69604492 34.15478516 C40.73912469 29.32806579 40.19877928 24.09776987 40.1875 18.9375 C40.23003906 17.17986328 40.23003906 17.17986328 40.2734375 15.38671875 C40.42008855 8.16759144 40.42008855 8.16759144 37.15625 1.9921875 C36.3415625 1.27289063 35.526875 0.55359375 34.6875 -0.1875 C36.9375 -0.4375 36.9375 -0.4375 39.6875 -0.1875 C43.60990073 3.08116728 44.75268662 5.46436621 45.25 10.4375 C45.33378906 11.25476562 45.41757813 12.07203125 45.50390625 12.9140625 C45.56449219 13.54054688 45.62507813 14.16703125 45.6875 14.8125 C46.491875 14.956875 47.29625 15.10125 48.125 15.25 C50.6875 15.8125 50.6875 15.8125 51.6875 16.8125 C51.8203125 18.625 51.8203125 18.625 51.8125 20.8125 C51.81636719 21.8953125 51.81636719 21.8953125 51.8203125 23 C51.6875 24.8125 51.6875 24.8125 50.6875 25.8125 C49.02132885 25.85313832 47.35361905 25.855221 45.6875 25.8125 C45.70321045 26.48829102 45.7189209 27.16408203 45.73510742 27.86035156 C45.79753867 30.92764897 45.83651647 33.99481259 45.875 37.0625 C45.90013672 38.12597656 45.92527344 39.18945312 45.95117188 40.28515625 C45.96083984 41.30996094 45.97050781 42.33476563 45.98046875 43.390625 C45.9961792 44.33325195 46.01188965 45.27587891 46.02807617 46.24707031 C45.6240231 49.29064717 44.8342224 50.6409727 42.6875 52.8125 C39.6875 53.25 39.6875 53.25 36.6875 52.8125 C36.07781372 52.06552856 36.07781372 52.06552856 35.45581055 51.3034668 C32.72701446 49.00265805 29.79552933 49.44259578 26.39453125 49.51953125 C25.68850266 49.52377609 24.98247406 49.52802094 24.25505066 49.53239441 C22.00297697 49.54916966 19.75180258 49.58681757 17.5 49.625 C15.97201815 49.64004843 14.44402224 49.65373656 12.91601562 49.66601562 C9.17283128 49.69906911 5.43031804 49.75084168 1.6875 49.8125 C1.6875 50.4725 1.6875 51.1325 1.6875 51.8125 C-1.625 52.5 -1.625 52.5 -5.3125 52.8125 C-7.0246582 51.6784668 -7.0246582 51.6784668 -8.3125 49.8125 C-8.65307617 47.26879883 -8.65307617 47.26879883 -8.60546875 44.26953125 C-8.59580078 43.19638672 -8.58613281 42.12324219 -8.57617188 41.01757812 C-8.55103516 39.89802734 -8.52589844 38.77847656 -8.5 37.625 C-8.48646484 36.49384766 -8.47292969 35.36269531 -8.45898438 34.19726562 C-8.42359958 31.40186683 -8.37422948 28.60742108 -8.3125 25.8125 C-9.116875 25.833125 -9.92125 25.85375 -10.75 25.875 C-13.3125 25.8125 -13.3125 25.8125 -14.3125 24.8125 C-14.38429964 23.29321962 -14.39642007 21.77082518 -14.375 20.25 C-14.36597656 19.42371094 -14.35695313 18.59742187 -14.34765625 17.74609375 C-14.33605469 17.10800781 -14.32445313 16.46992187 -14.3125 15.8125 C-12.3325 15.4825 -10.3525 15.1525 -8.3125 14.8125 C-8.29832031 14.14863281 -8.28414063 13.48476562 -8.26953125 12.80078125 C-8.01760999 8.13683365 -7.8021465 5.48741815 -5 1.625 C-2.3125 -0.1875 -2.3125 -0.1875 0 0 Z " fill="#E6EDE5" transform="translate(107.3125,52.1875)"/>
<path d="M0 0 C-0.99 0.33 -1.98 0.66 -3 1 C-1.68 1 -0.36 1 1 1 C3.40450178 3.40450178 3.29609139 4.08233942 3.3125 7.375 C3.23407673 10.2397561 3.03912817 11.91087473 1.875 14.5625 C0 16 0 16 -3 16.4375 C-6 16 -6 16 -7.23168945 14.4909668 C-9.96048554 12.19015805 -12.89197067 12.63009578 -16.29296875 12.70703125 C-16.99899734 12.71127609 -17.70502594 12.71552094 -18.43244934 12.71989441 C-20.68452303 12.73666966 -22.93569742 12.77431757 -25.1875 12.8125 C-26.71548185 12.82754843 -28.24347776 12.84123656 -29.77148438 12.85351562 C-33.51466872 12.88656911 -37.25718196 12.93834168 -41 13 C-41 13.66 -41 14.32 -41 15 C-47.4747314 16.34381218 -47.4747314 16.34381218 -49.71875 14.875 C-51.49492035 12.27572632 -51.29745248 10.42782026 -51.1875 7.3125 C-51.16042969 6.31863281 -51.13335937 5.32476562 -51.10546875 4.30078125 C-51.07066406 3.54152344 -51.03585938 2.78226562 -51 2 C-49.35 1.67 -47.7 1.34 -46 1 C-46.66 0.67 -47.32 0.34 -48 0 C-45.03 0.495 -45.03 0.495 -42 1 C-41.67 2.32 -41.34 3.64 -41 5 C-35.27773019 5.98096054 -29.73670346 6.15083164 -23.9375 6.125 C-23.06544922 6.12886719 -22.19339844 6.13273437 -21.29492188 6.13671875 C-16.74930874 6.12983667 -12.47255586 5.92535639 -8 5 C-7.9071875 4.071875 -7.9071875 4.071875 -7.8125 3.125 C-7 1 -7 1 -4.5625 -0.3125 C-2 -1 -2 -1 0 0 Z " fill="#FB7472" transform="translate(150,89)"/>
<path d="M0 0 C0.556875 0.268125 1.11375 0.53625 1.6875 0.8125 C1.03628174 1.34029053 0.38506348 1.86808105 -0.28588867 2.41186523 C-2.91394909 5.52495017 -2.79017166 7.19097179 -2.73828125 11.22265625 C-2.72990234 12.45951172 -2.72152344 13.69636719 -2.71289062 14.97070312 C-2.68388672 16.25912109 -2.65488281 17.54753906 -2.625 18.875 C-2.61049805 20.81342773 -2.61049805 20.81342773 -2.59570312 22.79101562 C-2.64698548 29.40736706 -2.64698548 29.40736706 -1.3125 35.8125 C-0.3225 36.1425 0.6675 36.4725 1.6875 36.8125 C1.3575 37.4725 1.0275 38.1325 0.6875 38.8125 C-0.6325 38.4825 -1.9525 38.1525 -3.3125 37.8125 C-3.6425 38.4725 -3.9725 39.1325 -4.3125 39.8125 C-5.3025 39.4825 -6.2925 39.1525 -7.3125 38.8125 C-7.6425 34.5225 -7.9725 30.2325 -8.3125 25.8125 C-9.9625 25.8125 -11.6125 25.8125 -13.3125 25.8125 C-14.3125 24.8125 -14.3125 24.8125 -14.41015625 22.74609375 C-14.39855469 21.92238281 -14.38695313 21.09867188 -14.375 20.25 C-14.36597656 19.42371094 -14.35695313 18.59742187 -14.34765625 17.74609375 C-14.33605469 17.10800781 -14.32445313 16.46992187 -14.3125 15.8125 C-12.3325 15.4825 -10.3525 15.1525 -8.3125 14.8125 C-8.29832031 14.14863281 -8.28414063 13.48476562 -8.26953125 12.80078125 C-8.01760999 8.13683365 -7.8021465 5.48741815 -5 1.625 C-2.3125 -0.1875 -2.3125 -0.1875 0 0 Z " fill="#F0F4EE" transform="translate(107.3125,52.1875)"/>
<path d="M0 0 C0.99 0 1.98 0 3 0 C3.33 0.66 3.66 1.32 4 2 C5.99108405 2.43083835 5.99108405 2.43083835 8.3125 2.5625 C10.5908662 2.74702883 12.70862295 2.92166645 14.91796875 3.515625 C22.88353573 5.36877754 31.63391914 3.9634258 39.5390625 2.4375 C42 2 42 2 45 2 C45.33 1.34 45.66 0.68 46 0 C46.99 0 47.98 0 49 0 C49 2.8125 49 2.8125 48 6 C41.18955869 9.69365274 34.1090423 9.46035111 26.53637695 9.39111328 C24.43830619 9.37500619 22.34215347 9.39103214 20.24414062 9.41015625 C18.89062081 9.40817401 17.53710218 9.40433073 16.18359375 9.3984375 C14.97243896 9.39505371 13.76128418 9.39166992 12.51342773 9.38818359 C8.33477351 8.92650197 5.71898283 7.94682705 2 6 C0 3 0 3 0 0 Z " fill="#E0F0E3" transform="translate(101,93)"/>
<path d="M0 0 C0.78503906 0.16242188 1.57007812 0.32484375 2.37890625 0.4921875 C6.92401754 1.12958175 11.35466028 1.14532301 15.9375 1.125 C17.23977539 1.13080078 17.23977539 1.13080078 18.56835938 1.13671875 C23.48604607 1.12928461 28.15215056 0.8310599 33 0 C33 0.99 33 1.98 33 3 C27.61549131 5.22807256 22.78705557 5.30077211 17.0625 5.25 C16.19431641 5.25773437 15.32613281 5.26546875 14.43164062 5.2734375 C9.23488887 5.25772548 4.91926283 4.6866044 0 3 C0 2.01 0 1.02 0 0 Z " fill="#FADBB2" transform="translate(109,91)"/>
<path d="M0 0 C4.875 0.875 4.875 0.875 6 2 C6.1328125 3.8125 6.1328125 3.8125 6.125 6 C6.12757813 6.721875 6.13015625 7.44375 6.1328125 8.1875 C6 10 6 10 5 11 C2.5625 11.1875 2.5625 11.1875 0 11 C-2 9 -2 9 -2.25 6.0625 C-2 3 -2 3 0 0 Z " fill="#525D55" transform="translate(153,67)"/>
<path d="M0 0 C9.24 0 18.48 0 28 0 C28 0.66 28 1.32 28 2 C24.40435765 3.79782118 20.20885142 3.18469628 16.25 3.1875 C14.90808594 3.20586914 14.90808594 3.20586914 13.5390625 3.22460938 C8.61716771 3.23549852 4.61645715 2.93371467 0 1 C0 0.67 0 0.34 0 0 Z " fill="#FEFCF8" transform="translate(109,90)"/>
<path d="M0 0 C0.02689216 1.47906892 0.04634621 2.95827483 0.0625 4.4375 C0.07410156 5.26121094 0.08570312 6.08492188 0.09765625 6.93359375 C0 9 0 9 -1 10 C-3.5 10.125 -3.5 10.125 -6 10 C-7 9 -7 9 -7.09765625 6.93359375 C-7.08605469 6.10988281 -7.07445313 5.28617187 -7.0625 4.4375 C-7.05347656 3.61121094 -7.04445313 2.78492187 -7.03515625 1.93359375 C-7.02355469 1.29550781 -7.01195313 0.65742187 -7 0 C-4.3333581 -1.33332095 -2.83319697 -0.67102033 0 0 Z " fill="#4F5952" transform="translate(100,68)"/>
<path d="M0 0 C2.40450178 2.40450178 2.29609139 3.08233942 2.3125 6.375 C2.23407673 9.2397561 2.03912817 10.91087473 0.875 13.5625 C-1.76621719 15.58743318 -3.76578783 15.28748553 -7 15 C-7.66 13.68 -8.32 12.36 -9 11 C-6.69 10.34 -4.38 9.68 -2 9 C-1.34 6.03 -0.68 3.06 0 0 Z " fill="#102017" transform="translate(151,90)"/>
<path d="M0 0 C0.66 0 1.32 0 2 0 C2.185625 1.093125 2.37125 2.18625 2.5625 3.3125 C3.57516528 6.9490498 3.57516528 6.9490498 5.69140625 8.1328125 C7.83650143 9.05926212 7.83650143 9.05926212 11 10 C10.67 10.99 10.34 11.98 10 13 C3.5252686 14.34381218 3.5252686 14.34381218 1.28125 12.875 C-0.49492035 10.27572632 -0.29745248 8.42782026 -0.1875 5.3125 C-0.16042969 4.31863281 -0.13335937 3.32476562 -0.10546875 2.30078125 C-0.07066406 1.54152344 -0.03585938 0.78226562 0 0 Z " fill="#0B160F" transform="translate(99,91)"/>
<path d="M0 0 C-0.99 0.33 -1.98 0.66 -3 1 C-1.68 1.33 -0.36 1.66 1 2 C1 3.65 1 5.3 1 7 C0.67 6.01 0.34 5.02 0 4 C-0.99 4 -1.98 4 -3 4 C-3.33 4.99 -3.66 5.98 -4 7 C-5.65 6.67 -7.3 6.34 -9 6 C-8.3125 3.625 -8.3125 3.625 -7 1 C-2.71428571 -1.35714286 -2.71428571 -1.35714286 0 0 Z " fill="#9E7E70" transform="translate(150,89)"/>
<path d="M0 0 C2.97 0.495 2.97 0.495 6 1 C6.33 2.65 6.66 4.3 7 6 C5.68 6.33 4.36 6.66 3 7 C2.67 6.01 2.34 5.02 2 4 C1.01 4 0.02 4 -1 4 C-1 2 -1 2 0 1 C0 0.67 0 0.34 0 0 Z " fill="#94796E" transform="translate(102,89)"/>
<path d="M0 0 C2.25 -0.25 2.25 -0.25 5 0 C7.3125 2 7.3125 2 9 4 C8.67 4.66 8.34 5.32 8 6 C5 6 5 6 3.61328125 4.6875 C2.40885417 3.125 1.20442708 1.5625 0 0 Z " fill="#D6E9DC" transform="translate(142,52)"/>
<path d="M0 0 C-4.625 4 -4.625 4 -8 4 C-5.97675095 -0.48005146 -4.79569304 -1.43870791 0 0 Z " fill="#DBECE1" transform="translate(109,53)"/>
</svg>
